# xmcd
#
# Track frame offsets: 
#        150
#        16479
#        31505
#        46968
#        61182
#        79903
#        93389
#        109120
#        125107
#        140310
#        162173
#        184710
#        196369
#        211177
#        229119
#        250970
#        261727
#        279253
#        297970
#        323483
#
# Disc length: 4548 seconds
#
# Revision: 5
# Processed by: cddbd v1.5.2PL0 Copyright (c) Steve Scherf et al.
# Submitted via: ExactAudioCopy v0.99pb5
#
DISCID=1911c214
DTITLE=Various Artist - New Country Collection [CD 2)
DYEAR=2007
DGENRE=Country
TTITLE0=Tony Arata - I Used to Worry
TTITLE1=Mark Chesnutt - Somebody Save the Honky Tonks
TTITLE2=Lonestar - Tequila Talkin'
TTITLE3=Lorrie Morgan - Shakin' Things Up
TTITLE4=Kenny Chesney - She Thinks My Tractor's Sexy
TTITLE5=Chris LeDoux - County Fair
TTITLE6=Jamie O'Neal - Trying to Find Atlantis
TTITLE7=Trace Adkins - There's a Girl in Texas
TTITLE8=Mary Chapin Carpenter - Down at the Twist and Shout
TTITLE9=Montgomery Gentry - Hell Yeah
TTITLE10=Patty Loveless - How Can I Help You Say Goodbye
TTITLE11=Rick Trevino - I Want a Girl in a Pick-Up Truck
TTITLE12=Jo Dee Messina - I'm Alright
TTITLE13=Eric Heatherly - Way Down
TTITLE14=Carolyn Dawn Johnson - Georgia
TTITLE15=Diamond Rio - Unbelievable
TTITLE16=Toby Keith - Dream Walkin'
TTITLE17=The Wilkinsons - Little Girl
TTITLE18=Prairie Oyster - One Way Track
TTITLE19=Phil Vassar - Just Another Day in Paradise
EXTD=
EXTT0=
EXTT1=
EXTT2=
EXTT3=
EXTT4=
EXTT5=
EXTT6=
EXTT7=
EXTT8=
EXTT9=
EXTT10=
EXTT11=
EXTT12=
EXTT13=
EXTT14=
EXTT15=
EXTT16=
EXTT17=
EXTT18=
EXTT19=
PLAYORDER=
